# This file uses centimeters as units for non-parametric coordinates.

mtllib Shield.mtl
g default
v -2.338844 2.695898 0.166512
v 1.327507 2.695898 0.166512
v -3.114667 7.263755 0.166512
v 2.103330 7.263755 0.166512
v -3.114667 7.263755 -0.166512
v 2.103330 7.263755 -0.166512
v -2.338844 2.695898 -0.166512
v 1.327507 2.695898 -0.166512
v -0.505668 1.687496 0.166512
v -0.505668 8.282081 0.166512
v -0.505668 8.282081 -0.166512
v -0.505668 1.687496 -0.166512
v -2.925264 7.146285 0.166512
v -0.505668 8.063202 0.166512
v -2.192162 2.829631 0.166512
v -0.505668 1.912630 0.166512
v 1.180825 2.829631 0.166512
v 1.913927 7.146285 0.166512
v -2.192162 2.829631 -0.166512
v -0.505668 1.912630 -0.166512
v -2.925264 7.146285 -0.166512
v -0.505668 8.063202 -0.166512
v 1.913927 7.146285 -0.166512
v 1.180825 2.829631 -0.166512
v -2.773583 7.018650 0.258588
v -0.505668 7.854353 0.258588
v -2.086438 2.972600 0.258588
v -0.505668 2.121477 0.258588
v 1.075101 2.972600 0.258588
v 1.762246 7.018650 0.258588
v -2.086438 2.972600 -0.258588
v -0.505668 2.121477 -0.258588
v -2.773583 7.018650 -0.258588
v -0.505668 7.854353 -0.258588
v 1.762246 7.018650 -0.258588
v 1.075101 2.972600 -0.258588
vt 0.700096 0.208933
vt 0.942736 0.212018
vt 0.644908 0.510582
vt 0.990236 0.514973
vt 0.667809 0.369560
vt 0.322454 0.368619
vt 0.617285 0.067095
vt 0.374626 0.066433
vt 0.822265 0.143739
vt 0.816715 0.580171
vt 0.494948 0.436488
vt 0.496137 0.000023
vt 0.410789 1.000000
vt 0.245679 0.944930
vt 0.280262 0.656497
vt 0.390115 0.588963
vt 0.506189 0.645134
vt 0.569539 0.928641
vt 0.147042 0.285752
vt 0.262701 0.342773
vt 0.323971 0.626737
vt 0.164701 0.696930
vt 0.000000 0.640651
vt 0.036697 0.352480
vt 0.410021 0.984734
vt 0.257071 0.935442
vt 0.289487 0.666286
vt 0.390881 0.604206
vt 0.497993 0.655799
vt 0.557253 0.920343
vt 0.147696 0.301000
vt 0.254427 0.353377
vt 0.311746 0.618349
vt 0.164046 0.681659
vt 0.011461 0.631246
vt 0.045850 0.362336
vt 0.496097 0.014923
vt 0.384310 0.075311
vt 0.335011 0.360878
vt 0.494987 0.422001
vt 0.655294 0.361751
vt 0.607552 0.075920
vt 0.816899 0.565686
vt 0.977800 0.507040
vt 0.932916 0.220745
vt 0.822075 0.158639
vt 0.709691 0.217907
vt 0.657541 0.502968
vt 0.017116 -0.000000
vt 0.494987 0.422001
vt 0.794499 0.993111
vt 0.414365 0.489612
vt 0.501613 0.597145
vt 0.811615 0.979223
vt 0.494948 0.436488
vt 0.694824 0.835278
vt 0.000000 0.013887
vt 0.677708 0.849165
vt 0.397249 0.503499
vt 0.484497 0.611032
vt 0.133907 0.143945
vt 0.327118 0.382079
vt 0.310002 0.395966
vt 0.116791 0.157833
vn -0.000000 0.000000 1.000000
vn -0.000000 0.000000 1.000000
vn -0.000000 0.000000 1.000000
vn -0.000000 0.000000 1.000000
vn -0.363599 0.931556 0.000000
vn 0.000000 1.000000 0.000000
vn 0.000000 1.000000 0.000000
vn -0.363599 0.931556 0.000000
vn 0.000000 0.000000 -1.000000
vn 0.000000 0.000000 -1.000000
vn 0.000000 0.000000 -1.000000
vn 0.000000 0.000000 -1.000000
vn -0.481976 -0.876185 0.000000
vn 0.000000 -1.000000 0.000000
vn 0.000000 -1.000000 0.000000
vn -0.481976 -0.876185 0.000000
vn 0.985881 -0.167446 0.000000
vn 0.985881 -0.167446 0.000000
vn 0.985881 -0.167446 0.000000
vn 0.985881 -0.167446 0.000000
vn -0.985881 -0.167446 0.000000
vn -0.985881 -0.167446 0.000000
vn -0.985881 -0.167446 0.000000
vn -0.985881 -0.167446 0.000000
vn 0.363599 0.931556 0.000000
vn 0.363599 0.931556 0.000000
vn 0.481976 -0.876185 0.000000
vn 0.481976 -0.876185 0.000000
vn 0.000000 -0.000000 1.000000
vn 0.000000 -0.000000 1.000000
vn 0.000000 -0.000000 1.000000
vn 0.000000 -0.000000 1.000000
vn 0.000000 0.000000 1.000000
vn 0.000000 0.000000 1.000000
vn -0.000000 0.000000 1.000000
vn -0.000000 0.000000 1.000000
vn -0.000000 0.000000 1.000000
vn -0.000000 0.000000 1.000000
vn -0.000000 -0.000000 1.000000
vn -0.000000 -0.000000 1.000000
vn 0.000000 0.000000 -1.000000
vn 0.000000 0.000000 -1.000000
vn 0.000000 0.000000 -1.000000
vn 0.000000 0.000000 -1.000000
vn 0.000000 -0.000000 -1.000000
vn 0.000000 -0.000000 -1.000000
vn 0.000000 -0.000000 -1.000000
vn 0.000000 -0.000000 -1.000000
vn -0.000000 -0.000000 -1.000000
vn -0.000000 -0.000000 -1.000000
vn -0.000000 0.000000 -1.000000
vn -0.000000 0.000000 -1.000000
vn -0.156623 0.418900 0.894423
vn -0.156623 0.418900 0.894423
vn -0.156623 0.418900 0.894423
vn -0.156623 0.418900 0.894423
vn -0.575208 -0.097688 0.812153
vn -0.575208 -0.097688 0.812153
vn -0.575208 -0.097688 0.812153
vn -0.575208 -0.097688 0.812153
vn -0.216875 -0.400757 0.890146
vn -0.216875 -0.400757 0.890146
vn -0.216875 -0.400757 0.890146
vn -0.216875 -0.400757 0.890146
vn 0.216875 -0.400757 0.890146
vn 0.216875 -0.400757 0.890146
vn 0.216875 -0.400756 0.890146
vn 0.216875 -0.400756 0.890146
vn 0.575208 -0.097688 0.812153
vn 0.575208 -0.097688 0.812153
vn 0.575208 -0.097688 0.812153
vn 0.575208 -0.097688 0.812153
vn 0.156623 0.418900 0.894423
vn 0.156623 0.418900 0.894423
vn 0.156623 0.418900 0.894423
vn 0.156623 0.418900 0.894423
vn -0.216875 -0.400756 -0.890146
vn -0.216875 -0.400756 -0.890146
vn -0.216875 -0.400756 -0.890146
vn -0.216875 -0.400756 -0.890146
vn -0.575208 -0.097688 -0.812153
vn -0.575208 -0.097688 -0.812153
vn -0.575208 -0.097688 -0.812153
vn -0.575208 -0.097688 -0.812153
vn -0.156623 0.418900 -0.894423
vn -0.156623 0.418900 -0.894423
vn -0.156623 0.418900 -0.894423
vn -0.156623 0.418900 -0.894423
vn 0.156623 0.418900 -0.894423
vn 0.156623 0.418900 -0.894423
vn 0.156623 0.418900 -0.894423
vn 0.156623 0.418900 -0.894423
vn 0.575208 -0.097688 -0.812153
vn 0.575208 -0.097688 -0.812153
vn 0.575208 -0.097688 -0.812153
vn 0.575208 -0.097688 -0.812153
vn 0.216875 -0.400757 -0.890146
vn 0.216875 -0.400757 -0.890146
vn 0.216875 -0.400757 -0.890146
vn 0.216875 -0.400757 -0.890146
vn 0.000000 0.000000 1.000000
vn 0.000000 0.000000 1.000000
vn 0.000000 0.000000 -1.000000
vn 0.000000 0.000000 -1.000000
s 1
g pCube1
usemtl initialShadingGroup
f 26/25/1 28/28/2 29/29/3 30/30/4
s 2
f 3/64/5 10/57/6 11/49/7 5/61/8
s 3
f 32/31/9 31/32/10 33/33/11 34/34/12
s 4
f 7/62/13 12/52/14 9/59/15 1/63/16
s off
f 2/60/17 8/53/18 6/56/19 4/58/20
f 7/62/21 1/63/22 3/64/23 5/61/24
s 2
f 11/54/7 10/51/6 4/58/25 6/56/26
s 4
f 9/59/15 12/52/14 8/53/27 2/60/28
s 5
f 10/10/29 3/3/30 13/48/31 14/43/32
f 3/3/30 1/1/33 15/47/34 13/48/31
f 1/1/33 9/9/35 16/46/36 15/47/34
f 9/9/35 2/2/37 17/45/38 16/46/36
f 2/2/37 4/4/39 18/44/40 17/45/38
f 4/4/39 10/10/29 14/43/32 18/44/40
s 6
f 12/12/41 7/7/42 19/42/43 20/37/44
f 7/7/42 5/5/45 21/41/46 19/42/43
f 5/5/45 11/55/47 22/50/48 21/41/46
f 11/11/47 6/6/49 23/39/50 22/40/48
f 6/6/49 8/8/51 24/38/52 23/39/50
f 8/8/51 12/12/41 20/37/44 24/38/52
s off
f 14/13/53 13/14/54 25/26/55 26/25/56
f 13/14/57 15/15/58 27/27/59 25/26/60
f 15/15/61 16/16/62 28/28/63 27/27/64
f 16/16/65 17/17/66 29/29/67 28/28/68
f 17/17/69 18/18/70 30/30/71 29/29/72
f 18/18/73 14/13/74 26/25/75 30/30/76
f 20/19/77 19/20/78 31/32/79 32/31/80
f 19/20/81 21/21/82 33/33/83 31/32/84
f 21/21/85 22/22/86 34/34/87 33/33/88
f 22/22/89 23/23/90 35/35/91 34/34/92
f 23/23/93 24/24/94 36/36/95 35/35/96
f 24/24/97 20/19/98 32/31/99 36/36/100
s 1
f 26/25/1 25/26/101 27/27/102 28/28/2
s 3
f 32/31/9 34/34/12 35/35/103 36/36/104
